<svg width="34" height="34" viewBox="0 0 34 34" fill="none" xmlns="http://www.w3.org/2000/svg">
<path d="M7.62482 16.9528H12.0365C12.3411 16.9528 12.5882 16.7054 12.5882 16.4011V10.3348C12.5882 10.0308 12.3411 9.78339 12.0365 9.78339H7.62482C7.32034 9.78339 7.07324 10.0308 7.07324 10.3348V16.4011C7.07324 16.7054 7.32034 16.9528 7.62482 16.9528Z" fill="#0CD4DC"/>
<path d="M31.3389 29.0854C31.3389 31.2144 29.6066 32.9459 27.4778 32.9459H6.52161C4.39349 32.9459 2.66103 31.2144 2.66103 29.0854V3.16569C2.66103 1.94906 3.65023 0.959693 4.86702 0.959693H24.7209C25.9373 0.959693 26.9269 1.94906 26.9269 3.16569V10.8865H30.7871C31.0919 10.8865 31.3389 11.1335 31.3389 11.4376V29.0854ZM30.7871 9.92683H27.8865V3.16569C27.8865 1.42011 26.4664 0 24.7209 0H4.86702C3.12177 0 1.70166 1.42011 1.70166 3.16569V29.0856C1.70166 31.7433 3.86388 33.9056 6.52161 33.9056H27.4778C30.136 33.9056 32.2982 31.7433 32.2982 29.0856V11.4376C32.2982 10.6042 31.6204 9.92683 30.7871 9.92683Z" fill="#0CD4DC"/>
<path d="M23.0662 9.78339H16.4484C15.7263 9.78077 15.7289 8.68334 16.4484 8.68072H23.0662C23.7888 8.68334 23.7852 9.78077 23.0662 9.78339ZM23.0662 13.9199H16.4484C15.7263 13.9166 15.7289 12.8195 16.4484 12.8166H23.0662C23.7888 12.8195 23.7852 13.9166 23.0662 13.9199ZM23.0662 18.0558H16.4484C15.7263 18.0529 15.7289 16.9554 16.4484 16.9528H23.0662C23.7888 16.9554 23.7852 18.0529 23.0662 18.0558ZM23.0662 21.9162H6.52174C5.79586 21.9128 5.80603 20.8152 6.52174 20.8132H23.0662C23.7921 20.8165 23.782 21.9141 23.0662 21.9162ZM23.0662 25.7765H6.52174C5.79586 25.7734 5.80603 24.6759 6.52174 24.6735H23.0662C23.7921 24.6769 23.782 25.7747 23.0662 25.7765ZM5.97016 10.3348C5.97016 9.42234 6.71243 8.68072 7.62474 8.68072H12.0364C12.9489 8.68072 13.6912 9.42234 13.6912 10.3348V16.4011C13.6912 17.3135 12.9489 18.0558 12.0364 18.0558H7.62474C6.71243 18.0558 5.97016 17.3135 5.97016 16.4011V10.3348ZM6.52174 4.81997H23.0662C23.7921 4.82276 23.782 5.92051 23.0662 5.92314H6.52174C5.79586 5.92002 5.80603 4.82227 6.52174 4.81997ZM26.927 26.3282C26.927 26.6324 26.6801 26.8795 26.3752 26.8795C26.0704 26.8795 25.8238 26.6324 25.8238 26.3282V3.16572C25.8238 2.55773 25.329 2.06305 24.721 2.06305H4.86716C4.2595 2.06305 3.76416 2.55773 3.76416 3.16572V29.0855C3.76416 30.6059 5.00128 31.8432 6.52174 31.8432H27.4779C28.9987 31.8432 30.2355 30.6059 30.2355 29.0855V11.9894H26.927V26.3282Z" fill="#0CD4DC"/>
</svg>