<svg width="40" height="40" viewBox="0 0 40 40" fill="none" xmlns="http://www.w3.org/2000/svg">
<g clip-path="url(#clip0_338_1187)">
<path d="M23.5665 19.9772H23.5931C24.6192 19.9772 24.9847 18.7926 24.9847 17.6842C24.9847 16.6381 24.6134 15.4169 23.5665 15.4169C22.587 15.4169 22.1481 16.5623 22.1481 17.6972C22.1412 18.5558 22.3516 19.2429 22.7409 19.6354C22.966 19.8623 23.2438 19.9772 23.5665 19.9772Z" fill="#1BADFF"/>
<path d="M30.7775 12.4028C30.7914 12.4404 30.8053 12.4778 30.8186 12.5156C30.8888 12.7093 30.9548 12.9045 31.0171 13.1011C31.0302 13.142 31.0439 13.1827 31.0566 13.224C31.1251 13.4466 31.1893 13.6703 31.2478 13.896C31.2507 13.9065 31.2536 13.9167 31.2563 13.9269C31.3176 14.1657 31.3732 14.4063 31.4231 14.6482C31.4333 14.697 31.4413 14.7465 31.4509 14.7955C31.4872 14.9805 31.5209 15.1663 31.5506 15.353C31.5637 15.4344 31.5749 15.5166 31.5867 15.5986C31.6093 15.7577 31.6297 15.9173 31.6475 16.0776C31.6573 16.1653 31.6668 16.2535 31.6751 16.3416C31.6905 16.5072 31.7028 16.6732 31.7131 16.8397C31.7179 16.9184 31.724 16.9965 31.7277 17.0754C31.7389 17.3198 31.7464 17.565 31.7464 17.811C31.7464 26.4007 24.7609 33.3893 16.1747 33.3893C15.9021 33.3893 15.6284 33.3798 15.3544 33.365C15.3033 33.3623 15.2524 33.3604 15.2015 33.3573C14.9621 33.3416 14.7221 33.3198 14.4825 33.293C14.3921 33.283 14.3018 33.2726 14.2117 33.261C14.1826 33.2575 14.1534 33.2546 14.1245 33.2508C16.8055 35.6202 20.2007 36.9103 23.8255 36.9103C26.2138 36.9103 28.5886 36.3214 30.6926 35.2068C30.8207 35.1379 30.9742 35.1389 31.1025 35.2078C34.2333 36.8852 37.9108 36.6553 40.0001 36.3195C38.6241 35.7483 36.7013 34.5317 35.2007 31.9639C35.1089 31.8071 35.1241 31.6098 35.2385 31.4686C37.3579 28.8592 38.525 25.5689 38.525 22.2039C38.525 15.7732 34.4532 10.2195 28.4636 8.24731C29.3024 9.32351 29.9877 10.4971 30.5134 11.7365C30.5198 11.7519 30.5261 11.7676 30.5327 11.7832C30.6187 11.9881 30.7003 12.1947 30.7775 12.4028Z" fill="#1BADFF"/>
<path d="M14.4826 16.8384C14.4799 16.8283 14.4774 16.8177 14.4743 16.8071C14.4714 16.8189 14.4685 16.8303 14.4656 16.8413L14.2129 17.8974H14.7534L14.4826 16.8384Z" fill="#1BADFF"/>
<path d="M12.8387 22.599H10.3621C10.2249 22.599 10.0957 22.5345 10.0133 22.4248C9.93113 22.315 9.90509 22.1726 9.94329 22.0409L12.539 13.11C12.5934 12.9236 12.7641 12.7955 12.9578 12.7955H16.1368C16.3295 12.7955 16.4994 12.9223 16.5544 13.1071L19.2168 22.0382C19.256 22.1701 19.2307 22.3131 19.1483 22.4236C19.066 22.534 18.9365 22.599 18.7988 22.599H16.2162C16.0199 22.599 15.848 22.4676 15.7957 22.2786L15.3146 20.5318H13.6846L13.2623 22.266C13.2147 22.4614 13.0397 22.599 12.8387 22.599ZM7.43403 19.2068V22.1628C7.43403 22.4036 7.23862 22.599 6.99788 22.599H4.60069C4.35995 22.599 4.16474 22.4036 4.16474 22.1628V13.2317C4.16474 12.9909 4.35995 12.7955 4.60069 12.7955H10.3356C10.5766 12.7955 10.7716 12.9909 10.7716 13.2317V15.1929C10.7716 15.4336 10.5766 15.6291 10.3356 15.6291H7.43403V16.3999H10.137C10.3777 16.3999 10.5731 16.5953 10.5731 16.836V18.7704C10.5731 19.0114 10.3777 19.2068 10.137 19.2068H7.43403ZM23.6456 12.6495C26.903 12.6495 28.3866 15.2114 28.3866 17.5912C28.3866 19.1101 27.8486 20.4767 26.9668 21.309C27.2324 21.3723 27.5091 21.4311 27.793 21.4917L28.0685 21.5505C28.1921 21.5772 28.298 21.6562 28.359 21.7668C28.4198 21.8779 28.4296 22.0096 28.386 22.1281L27.7105 23.9568C27.6456 24.1325 27.4797 24.2419 27.3015 24.2419C27.2595 24.2419 27.2162 24.2361 27.1738 24.223C25.8007 23.8027 24.7695 23.3873 23.5505 22.854C23.4107 22.7926 23.2421 22.7558 23.0496 22.7438C20.9049 22.5856 18.7461 20.9886 18.7461 17.7772C18.7461 14.7581 20.761 12.6495 23.6456 12.6495ZM13.8698 32.3275C14.0793 32.3613 14.289 32.3929 14.4988 32.4176C14.6076 32.4302 14.7168 32.4375 14.8258 32.4477C14.9934 32.4635 15.1611 32.4809 15.3285 32.4909C15.6101 32.5073 15.8922 32.517 16.1746 32.517C24.2799 32.517 30.874 25.9199 30.874 17.811C30.874 17.5664 30.8675 17.3235 30.8557 17.082C30.8513 16.9975 30.8434 16.9136 30.838 16.8297C30.8274 16.6726 30.8173 16.5156 30.8019 16.3601C30.7924 16.2622 30.7789 16.1651 30.7674 16.0675C30.7506 15.9263 30.7342 15.7849 30.7135 15.6447C30.6989 15.5461 30.6809 15.4479 30.664 15.3497C30.6408 15.211 30.6175 15.0721 30.5901 14.9348C30.5714 14.8412 30.55 14.7483 30.5297 14.6551C30.4985 14.5129 30.4668 14.3711 30.4317 14.2309C30.4101 14.1456 30.387 14.0612 30.364 13.9767C30.3239 13.8279 30.2824 13.6798 30.2378 13.5328C30.2155 13.4591 30.1916 13.3858 30.168 13.3125C30.1175 13.1549 30.0648 12.9985 30.0093 12.8434C29.9871 12.782 29.9643 12.7209 29.9414 12.6599C29.8789 12.4932 29.8139 12.3279 29.7458 12.1644C29.7255 12.1157 29.7049 12.0675 29.6842 12.0193C29.6088 11.8439 29.5305 11.6705 29.4487 11.4987C29.4315 11.4626 29.414 11.4265 29.3964 11.3902C29.3079 11.2083 29.2159 11.0286 29.1202 10.8511C29.1059 10.825 29.092 10.7986 29.0777 10.7726C28.9765 10.5878 28.8717 10.4055 28.7631 10.2255C28.7512 10.206 28.7394 10.1865 28.7276 10.1669C28.6154 9.98322 28.4992 9.80228 28.3792 9.62384C28.3684 9.60764 28.3578 9.59144 28.3468 9.57523C28.2255 9.39641 28.1003 9.22087 27.9715 9.04765C27.9595 9.03164 27.9481 9.01563 27.936 8.99962C27.8077 8.8287 27.6753 8.66069 27.5401 8.49556C27.5257 8.47801 27.5116 8.46026 27.4969 8.4429C27.3621 8.2799 27.2234 8.12056 27.0818 7.96354C27.0654 7.94541 27.0494 7.92708 27.033 7.90914C24.3428 4.95872 20.4713 3.10455 16.1746 3.10455C8.06925 3.10455 1.47492 9.70178 1.47492 17.811C1.47492 21.1759 2.64217 24.4661 4.76138 27.0756C4.87577 27.2166 4.89101 27.414 4.79938 27.571C3.2988 30.1383 1.37616 31.3549 0 31.9261C2.08951 32.2618 5.7664 32.4923 8.89738 30.8144C8.96181 30.7799 9.03241 30.7625 9.1034 30.7625C9.17342 30.7625 9.24363 30.7795 9.30748 30.8135C10.478 31.4336 11.7336 31.8845 13.0278 32.1682C13.2429 32.2155 13.4579 32.2598 13.6738 32.2975C13.7388 32.3088 13.8044 32.3171 13.8698 32.3275Z" fill="#1BADFF"/>
</g>
<defs>
<clipPath id="clip0_338_1187">
<rect width="40" height="40" fill="white"/>
</clipPath>
</defs>
</svg>