<svg width="26" height="26" viewBox="0 0 26 26" fill="none" xmlns="http://www.w3.org/2000/svg">
<path d="M25.4573 12.794C25.4573 11.7649 25.3739 11.0139 25.1935 10.2352H13.4597V14.8799H20.3472C20.2084 16.0342 19.4585 17.7725 17.7921 18.9406L17.7688 19.0961L21.4788 21.9744L21.7358 22.0001C24.0964 19.8168 25.4573 16.6043 25.4573 12.794Z" fill="#4285F4"/>
<path d="M13.4597 25.0317C16.834 25.0317 19.6667 23.9192 21.7358 22.0001L17.7922 18.9406C16.7368 19.6777 15.3204 20.1922 13.4597 20.1922C10.1549 20.1922 7.3499 18.0089 6.35001 14.9912L6.20344 15.0037L2.34574 17.9936L2.29529 18.134C4.35041 22.2225 8.57179 25.0317 13.4597 25.0317Z" fill="#34A853"/>
<path d="M6.35 14.9912C6.08617 14.2125 5.93348 13.378 5.93348 12.5159C5.93348 11.6536 6.08617 10.8192 6.33612 10.0405L6.32913 9.87462L2.42308 6.83667L2.29528 6.89755C1.44827 8.59417 0.96225 10.4994 0.96225 12.5159C0.96225 14.5323 1.44827 16.4374 2.29528 18.1341L6.35 14.9912Z" fill="#FBBC05"/>
<path d="M13.4601 4.83945C15.8068 4.83945 17.3898 5.85463 18.2924 6.70299L21.8195 3.25414C19.6533 1.23769 16.8344 0 13.4601 0C8.57216 0 4.35077 2.8091 2.29565 6.8976L6.33649 10.0405C7.35027 7.02281 10.1552 4.83945 13.4601 4.83945Z" fill="#EB4335"/>
</svg>
