<svg width="24" height="34" viewBox="0 0 24 34" fill="none" xmlns="http://www.w3.org/2000/svg">
<path d="M19.7038 22.7879H3.97775C2.80458 22.7879 1.8501 21.8346 1.8501 20.6626V9.48081C1.8501 9.07257 2.18141 8.74158 2.59015 8.74158C2.99889 8.74158 3.3302 9.07257 3.3302 9.48081V20.6626C3.3302 21.0193 3.62067 21.3095 3.97775 21.3095H19.7038C20.0609 21.3095 20.3514 21.0193 20.3514 20.6626V9.48081C20.3514 9.07257 20.6827 8.74158 21.0914 8.74158C21.5002 8.74158 21.8315 9.07257 21.8315 9.48081V20.6626C21.8315 21.8345 20.877 22.7879 19.7038 22.7879Z" fill="#040404"/>
<path d="M22.9416 12.0679C22.7522 12.0679 22.5628 11.9958 22.4183 11.8514L13.2144 2.65778C12.457 1.90117 11.2246 1.90117 10.4672 2.65778L1.26335 11.8514C0.974358 12.1402 0.505767 12.1402 0.216777 11.8514C-0.0722591 11.5628 -0.0722591 11.0947 0.216777 10.806L9.42061 1.61232C10.7551 0.279293 12.9266 0.279293 14.261 1.61232L23.4648 10.806C23.7539 11.0947 23.7539 11.5627 23.4648 11.8514C23.3204 11.9958 23.131 12.0679 22.9416 12.0679Z" fill="#040404"/>
<path d="M14.8011 22.788H8.88068C8.47194 22.788 8.14062 22.457 8.14062 22.0488V15.4881C8.14062 14.2143 9.17808 13.178 10.4533 13.178H13.2285C14.5037 13.178 15.5411 14.2143 15.5411 15.4881V22.0488C15.5411 22.457 15.2098 22.788 14.8011 22.788ZM9.62073 21.3095H14.061V15.4881C14.061 15.0295 13.6875 14.6564 13.2285 14.6564H10.4533C9.99422 14.6564 9.62073 15.0295 9.62073 15.4881V21.3095Z" fill="#040404"/>
<path d="M1.90048 33V27.9091H2.97683V30.0096H5.16184V27.9091H6.23571V33H5.16184V30.897H2.97683V33H1.90048ZM8.82839 33.0746C8.44226 33.0746 8.10834 32.9925 7.82662 32.8285C7.54655 32.6628 7.33029 32.4324 7.17782 32.1374C7.02536 31.8408 6.94913 31.4969 6.94913 31.1058C6.94913 30.7114 7.02536 30.3667 7.17782 30.0717C7.33029 29.7751 7.54655 29.5447 7.82662 29.3807C8.10834 29.215 8.44226 29.1321 8.82839 29.1321C9.21452 29.1321 9.54761 29.215 9.82768 29.3807C10.1094 29.5447 10.3265 29.7751 10.479 30.0717C10.6314 30.3667 10.7077 30.7114 10.7077 31.1058C10.7077 31.4969 10.6314 31.8408 10.479 32.1374C10.3265 32.4324 10.1094 32.6628 9.82768 32.8285C9.54761 32.9925 9.21452 33.0746 8.82839 33.0746ZM8.83336 32.2543C9.00903 32.2543 9.15569 32.2045 9.27335 32.1051C9.39101 32.004 9.47967 31.8665 9.53933 31.6925C9.60065 31.5185 9.6313 31.3204 9.6313 31.0984C9.6313 30.8763 9.60065 30.6783 9.53933 30.5043C9.47967 30.3303 9.39101 30.1927 9.27335 30.0916C9.15569 29.9905 9.00903 29.94 8.83336 29.94C8.65604 29.94 8.5069 29.9905 8.38592 30.0916C8.2666 30.1927 8.17628 30.3303 8.11497 30.5043C8.05531 30.6783 8.02548 30.8763 8.02548 31.0984C8.02548 31.3204 8.05531 31.5185 8.11497 31.6925C8.17628 31.8665 8.2666 32.004 8.38592 32.1051C8.5069 32.2045 8.65604 32.2543 8.83336 32.2543ZM11.3962 33V29.1818H12.4055V29.8555H12.4502C12.5297 29.6317 12.6623 29.4553 12.8479 29.326C13.0335 29.1967 13.2556 29.1321 13.5141 29.1321C13.776 29.1321 13.9988 29.1976 14.1828 29.3285C14.3667 29.4577 14.4894 29.6334 14.5507 29.8555H14.5905C14.6684 29.6367 14.8092 29.4619 15.0131 29.331C15.2185 29.1984 15.4613 29.1321 15.7414 29.1321C16.0977 29.1321 16.3869 29.2456 16.6089 29.4727C16.8327 29.698 16.9445 30.0179 16.9445 30.4322V33H15.8881V30.641C15.8881 30.4289 15.8317 30.2698 15.719 30.1637C15.6063 30.0576 15.4655 30.0046 15.2964 30.0046C15.1042 30.0046 14.9542 30.0659 14.8465 30.1886C14.7388 30.3095 14.6849 30.4695 14.6849 30.6683V33H13.6583V30.6186C13.6583 30.4313 13.6044 30.2822 13.4967 30.1712C13.3907 30.0601 13.2506 30.0046 13.0766 30.0046C12.959 30.0046 12.8529 30.0344 12.7584 30.0941C12.6656 30.1521 12.5919 30.2341 12.5372 30.3402C12.4825 30.4446 12.4552 30.5672 12.4552 30.7081V33H11.3962ZM19.521 33.0746C19.1283 33.0746 18.7902 32.995 18.5068 32.8359C18.2251 32.6752 18.008 32.4482 17.8556 32.1548C17.7031 31.8598 17.6269 31.511 17.6269 31.1083C17.6269 30.7156 17.7031 30.3709 17.8556 30.0742C18.008 29.7776 18.2226 29.5464 18.4994 29.3807C18.7778 29.215 19.1043 29.1321 19.4788 29.1321C19.7307 29.1321 19.9652 29.1727 20.1823 29.2539C20.401 29.3335 20.5916 29.4536 20.754 29.6143C20.9181 29.7751 21.0457 29.9773 21.1368 30.2209C21.228 30.4628 21.2735 30.7462 21.2735 31.071V31.3619H18.0494V30.7056H20.2767C20.2767 30.5531 20.2436 30.4181 20.1773 30.3004C20.111 30.1828 20.019 30.0908 19.9014 30.0245C19.7854 29.9566 19.6503 29.9226 19.4962 29.9226C19.3354 29.9226 19.1929 29.9599 19.0686 30.0344C18.946 30.1074 18.8499 30.206 18.7803 30.3303C18.7107 30.4529 18.675 30.5896 18.6734 30.7404V31.3643C18.6734 31.5533 18.7082 31.7165 18.7778 31.854C18.849 31.9916 18.9493 32.0977 19.0786 32.1722C19.2078 32.2468 19.3611 32.2841 19.5384 32.2841C19.6561 32.2841 19.7638 32.2675 19.8616 32.2344C19.9594 32.2012 20.0431 32.1515 20.1127 32.0852C20.1823 32.0189 20.2353 31.9377 20.2718 31.8416L21.2512 31.9062C21.2014 32.1416 21.0995 32.3471 20.9454 32.5227C20.7929 32.6967 20.5957 32.8326 20.3538 32.9304C20.1135 33.0265 19.8359 33.0746 19.521 33.0746Z" fill="#040404"/>
</svg>
