<svg width="32" height="32" viewBox="0 0 32 32" fill="none" xmlns="http://www.w3.org/2000/svg">
<path d="M15.9816 0C18.7329 0 21.2789 0.887963 23.3468 2.39321C25.4678 3.93719 27.0853 6.13194 27.9099 8.68596C28.8789 11.6904 27.9292 15.3255 26.1378 18.8975C23.5776 24.0043 19.2891 29.0267 16.5622 31.7545C16.242 32.0748 15.7215 32.0748 15.4011 31.7545L15.394 31.7474C12.6093 28.9596 8.28411 23.9157 5.75248 18.7724C3.97825 15.1688 3.07748 11.4951 4.1409 8.42762C5.00417 5.94074 6.62578 3.81003 8.72732 2.3159C10.777 0.857407 13.2803 0 15.9816 0ZM22.384 3.72145C20.5884 2.41451 18.375 1.64259 15.9816 1.64259C13.6299 1.64259 11.4532 2.38611 9.67701 3.65031C7.84584 4.95216 6.43565 6.80324 5.68735 8.96049C4.78859 11.55 5.62223 14.7997 7.22161 18.0472C9.48982 22.6546 13.2853 27.2102 15.9816 30.0011C18.6292 27.2559 22.3881 22.7278 24.6756 18.1662C26.2912 14.942 27.1687 11.723 26.3512 9.18627C25.6366 6.97114 24.2293 5.06512 22.384 3.72145Z" fill="#F8644A"/>
<path d="M15.9814 4.84229C17.7466 4.84229 19.3449 5.55833 20.5018 6.7159C21.6589 7.8733 22.3746 9.47207 22.3746 11.2378C22.3746 13.0034 21.6589 14.6023 20.5018 15.7597C19.3449 16.9173 17.7466 17.6323 15.9814 17.6323C14.2165 17.6323 12.6182 16.9173 11.4611 15.7597C10.3041 14.6023 9.58838 13.0034 9.58838 11.2378C9.58838 9.47207 10.3041 7.8733 11.4611 6.7159C12.6182 5.55833 14.2165 4.84229 15.9814 4.84229ZM19.3407 7.87732C18.4807 7.01682 17.293 6.48488 15.9814 6.48488C14.6699 6.48488 13.4824 7.01682 12.6222 7.87732C11.7631 8.73673 11.2313 9.92469 11.2313 11.2378C11.2313 12.5498 11.7631 13.7378 12.6222 14.5983C13.4824 15.4577 14.6699 15.9897 15.9814 15.9897C17.293 15.9897 18.4807 15.4577 19.3407 14.5983C20.2009 13.7378 20.7316 12.5498 20.7316 11.2378C20.7316 9.92469 20.2009 8.73673 19.3407 7.87732Z" fill="#F8644A"/>
<path fill-rule="evenodd" clip-rule="evenodd" d="M15.9814 17.6322C14.2164 17.6322 12.6181 16.9173 11.461 15.7597C10.3041 14.6023 9.58833 13.0034 9.58833 11.2378C9.58833 9.47205 10.3041 7.87329 11.461 6.71588C12.6181 5.55832 14.2164 4.84227 15.9814 4.84227C17.7465 4.84227 19.3448 5.55832 20.5018 6.71588C21.6589 7.87329 22.3746 9.47205 22.3746 11.2378C22.3746 13.0034 21.6589 14.6023 20.5018 15.7597C19.3448 16.9173 17.7465 17.6322 15.9814 17.6322ZM22.3837 3.72144C20.5882 2.41449 18.3747 1.64258 15.9814 1.64258C13.6297 1.64258 11.453 2.3861 9.67675 3.65029C7.84558 4.95215 6.43539 6.80323 5.68709 8.96048C4.78832 11.55 5.62197 14.7997 7.22135 18.0472C9.48956 22.6546 13.2851 27.2102 15.9814 30.0011C18.6289 27.2559 22.3879 22.7278 24.6754 18.1662C26.291 14.942 27.1684 11.723 26.351 9.18625C25.6363 6.97113 24.2291 5.06511 22.3837 3.72144Z" fill="#F8644A"/>
</svg>
