<svg width="309" height="170" viewBox="0 0 309 170" fill="none" xmlns="http://www.w3.org/2000/svg">
<g clip-path="url(#clip0_309_1006)">
<path d="M113.077 57.3109C113.077 71.8876 107.443 89.7067 97.5765 99.276C87.7095 108.793 74.0646 114.683 59.0612 114.683H9.66812C9.66812 100.167 15.7573 86.9626 25.6244 77.4458C35.4913 67.8676 49.1362 61.9775 64.1894 61.9775L113.069 57.3021L113.077 57.3109Z" fill="#F32C36"/>
<path d="M113.077 57.3111H59.3594C42.9724 57.3111 28.1098 63.7256 17.3729 74.1513C6.62772 84.5071 0 98.883 0 114.683V0H53.7756C86.5 0 113.077 25.6405 113.077 57.3111Z" fill="#0096A6"/>
<path d="M113.077 169.119L61.3975 164.679C32.8321 164.679 9.66812 142.273 9.66812 114.683H61.3975C89.9131 114.683 113.077 141.521 113.077 169.119Z" fill="#079221"/>
<path d="M224.712 36.9314C223.189 35.4196 222.417 33.5406 222.417 31.2859C222.417 29.0312 223.181 27.1348 224.712 25.5705C226.237 24.0062 228.069 23.2285 230.197 23.2285C232.327 23.2285 234.157 24.015 235.682 25.5705C237.205 27.1348 237.977 29.0399 237.977 31.2859C237.977 33.5319 237.215 35.4196 235.682 36.9314C234.157 38.4432 232.327 39.2035 230.197 39.2035C228.069 39.2035 226.237 38.452 224.712 36.9314Z" fill="white"/>
<path d="M179.901 83.3183C185.733 90.6505 191.715 96.8989 197.821 102.081C203.935 107.263 209.353 111.117 214.076 113.66H193.371C187.166 110.042 181.516 105.332 176.422 99.5205C171.326 93.709 167.044 87.915 163.572 82.1559C160.101 76.3882 156.373 68.9163 152.388 59.7314V113.669H140.159V22.3456H181.011C186.106 22.3456 190.804 23.5866 195.112 26.0859C199.42 28.5766 202.866 31.8973 205.46 36.0484C208.053 40.1995 209.353 44.6215 209.353 49.3145C209.353 54.0073 208.218 57.9836 205.949 61.8463C203.678 65.7089 200.646 68.855 196.844 71.3021L179.893 83.3183H179.901ZM155.03 33.4879C159.015 48.0473 165.079 61.5317 173.232 73.9413C182.959 67.0023 188.426 63.1484 189.627 62.3619C191.848 60.7976 193.628 58.8662 194.979 56.5678C196.322 54.2695 196.993 51.8576 196.993 49.3145C196.993 45.2071 195.344 41.5453 192.063 38.3207C188.774 35.0959 185.095 33.4879 181.019 33.4879H155.039H155.03Z" fill="white"/>
<path d="M224.223 113.512H236.726V48.869H224.223V113.503V113.512Z" fill="white"/>
<path d="M269.243 103.54C271.744 103.348 274.015 102.492 276.053 100.98C278.091 99.4678 280.452 97.3442 283.136 94.6002C285.174 92.5465 286.864 90.9648 288.206 89.8374C289.549 88.7188 290.916 88.0021 292.307 87.7138C296.2 86.735 299.068 87.3467 300.923 89.549C302.779 91.7513 303.864 94.6089 304.188 98.122C304.51 101.644 304.253 106.774 303.425 113.512H291.611C292.63 109.02 293.094 105.839 293.003 103.986C292.912 102.133 292.215 101.058 290.916 100.761C290.17 100.665 289.408 100.91 288.621 101.495C287.834 102.081 286.699 103.103 285.215 104.571C282.804 107.115 280.402 109.238 277.991 110.951C275.58 112.664 272.614 113.905 269.102 114.691C266.326 115.277 263.128 115.085 259.516 114.106C255.904 113.127 252.781 111.152 250.138 108.172C247.496 105.192 246.228 101.111 246.32 95.9373C246.41 91.4454 247.596 87.8273 249.865 85.092C252.135 82.3567 254.985 80.3292 258.407 79.0097C261.836 77.69 265.863 76.6413 270.494 75.8548C270.676 75.8548 270.957 75.8111 271.33 75.7062C276.799 74.8236 280.965 73.8274 283.832 72.7C286.699 71.5814 288.554 69.65 289.39 66.906C290.228 64.5639 289.457 62.2392 287.096 59.9409C284.736 57.6425 280.584 56.786 274.661 57.3803C270.403 57.6775 266.766 58.7 263.75 60.4565C260.743 62.2131 258.166 65.0008 256.037 68.8111L248.116 62.7986C250.527 58.499 254.041 54.9333 258.68 52.1019C263.311 49.2705 268.638 47.7062 274.661 47.4091C281.049 47.0245 287.072 48.0469 292.722 50.4852C298.371 52.9321 301.428 57.424 301.893 63.9696C302.266 68.4615 301.404 72.027 299.324 74.6662C297.245 77.3055 294.602 79.1845 291.404 80.3118C288.206 81.4391 283.972 82.5315 278.687 83.6064C272.665 84.7775 268.124 86.0709 265.067 87.4865C262.011 88.9023 260.246 91.2269 259.79 94.4516C259.508 96.6976 260.089 98.8474 261.53 100.901C262.963 102.955 265.531 103.829 269.243 103.54Z" fill="white"/>
<path d="M173.116 157.469C172.27 155.084 171.384 153.249 170.465 151.955C169.545 150.662 168.245 149.544 166.546 148.608C164.847 147.664 162.776 147.219 160.332 147.271V141.093C164.384 141.189 167.756 142.124 170.465 143.889C173.175 145.655 175.246 147.821 176.679 150.408C178.112 152.986 179.113 155.574 179.677 158.151C180.24 160.729 180.597 164.085 180.738 168.21H174.947C174.897 167.021 174.757 165.334 174.524 163.141C172.362 164.828 169.967 166.191 167.358 167.239C164.749 168.28 162.172 168.804 159.629 168.804C155.346 168.804 151.377 167.738 147.731 165.597C144.086 163.464 141.204 160.571 139.082 156.918C136.962 153.266 135.901 149.281 135.901 144.964C135.901 140.646 136.962 136.662 139.082 133.009C141.204 129.356 144.086 126.463 147.731 124.331C151.377 122.199 155.346 121.132 159.629 121.132C163.249 121.132 166.679 121.91 169.902 123.475C173.124 125.039 175.866 127.258 178.128 130.142L174.176 134.311C172.437 132.03 170.324 130.23 167.855 128.91C165.387 127.591 162.645 126.935 159.628 126.935C156.612 126.935 153.672 127.739 151.086 129.356C148.494 130.973 146.447 133.157 144.948 135.91C143.44 138.663 142.686 141.677 142.686 144.955C142.686 148.233 143.44 151.248 144.948 154.009C146.455 156.761 148.502 158.947 151.086 160.563C153.672 162.18 156.522 162.984 159.628 162.984C163.962 162.984 168.452 161.149 173.116 157.469Z" fill="white"/>
<path d="M204.812 146.912V146.239C204.812 142.911 204.2 141.172 202.973 141.023C201.516 140.874 200.083 142.054 198.666 144.562C197.258 147.07 196.006 150.05 194.92 153.502C193.836 156.954 192.543 161.857 191.035 168.21H184.747V135.36H191.035V152.418C192.211 148.25 193.33 145.042 194.39 142.814C195.452 140.577 196.801 138.655 198.45 137.046C200.099 135.43 202.005 134.696 204.166 134.853C206.52 135.001 208.275 136.208 209.427 138.462C210.58 140.726 211.159 143.216 211.159 145.951V146.922H204.804L204.812 146.912Z" fill="white"/>
<path d="M212.782 149.596C213.255 145.374 215.053 141.853 218.185 139.021C221.316 136.19 225.019 134.678 229.302 134.477C234.431 134.232 238.258 135.22 240.776 137.457C243.295 139.694 244.249 142.369 243.635 145.498C243.212 147.289 241.962 149.037 239.891 150.749C237.819 152.462 235.515 153.939 232.973 155.179C230.429 156.421 226.899 157.889 222.384 159.575C224.506 161.813 226.999 162.932 229.865 162.932C231.414 162.932 232.816 162.634 234.066 162.039C235.309 161.445 236.336 160.764 237.14 159.995C237.943 159.225 238.813 158.125 239.749 156.682L243.982 159.584C242.574 161.673 241.249 163.272 240.03 164.391C238.805 165.51 237.28 166.488 235.441 167.336C233.603 168.183 231.556 168.603 229.302 168.603C226.477 168.603 223.843 167.904 221.391 166.514C218.946 165.125 216.942 163.263 215.393 160.93C214.688 159.786 214.125 158.676 213.695 157.583C219.013 155.844 223.13 154.34 226.047 153.073C228.962 151.807 231.522 150.356 233.709 148.713C235.898 147.078 236.991 145.384 236.991 143.644C236.991 142.404 236.269 141.468 234.836 140.847C233.403 140.227 231.738 139.965 229.857 140.07C227.264 140.166 224.987 141.11 223.006 142.901C221.026 144.692 219.824 146.921 219.402 149.604H212.766L212.782 149.596Z" fill="white"/>
<path d="M245.407 149.596C245.88 145.374 247.678 141.853 250.809 139.021C253.941 136.19 257.643 134.678 261.927 134.477C267.056 134.232 270.882 135.22 273.401 137.457C275.92 139.694 276.873 142.369 276.259 145.498C275.837 147.289 274.586 149.037 272.515 150.749C270.444 152.462 268.14 153.939 265.597 155.179C263.054 156.421 259.524 157.889 255.009 159.575C257.131 161.813 259.624 162.932 262.49 162.932C264.039 162.932 265.44 162.634 266.691 162.039C267.934 161.445 268.961 160.764 269.765 159.995C270.568 159.225 271.438 158.125 272.374 156.682L276.607 159.584C275.199 161.673 273.874 163.272 272.655 164.391C271.43 165.51 269.905 166.488 268.065 167.336C266.227 168.183 264.18 168.603 261.927 168.603C259.102 168.603 256.467 167.904 254.015 166.514C251.571 165.125 249.567 163.263 248.018 160.93C247.313 159.786 246.75 158.676 246.318 157.583C251.638 155.844 255.755 154.34 258.672 153.073C261.587 151.807 264.147 150.356 266.334 148.713C268.522 147.078 269.616 145.384 269.616 143.644C269.616 142.404 268.894 141.468 267.461 140.847C266.028 140.227 264.363 139.965 262.482 140.07C259.889 140.166 257.611 141.11 255.631 142.901C253.65 144.692 252.449 146.921 252.027 149.604H245.391L245.407 149.596Z" fill="white"/>
<path d="M285.721 167.991H279.433V135.141H285.721V152.793C286.988 148.275 288.24 144.823 289.465 142.437C290.692 140.052 292.29 138.042 294.271 136.408C296.251 134.774 298.529 134.153 301.122 134.547C306.068 135.342 308.536 140.576 308.536 150.259V167.982H302.182V150.775C302.042 147.2 301.734 144.666 301.263 143.181C300.79 141.696 300.036 140.9 299.001 140.795C297.211 140.594 295.513 141.748 293.915 144.256C292.315 146.763 290.923 149.743 289.747 153.195C288.57 156.647 287.229 161.577 285.721 167.982V167.991Z" fill="white"/>
</g>
<defs>
<clipPath id="clip0_309_1006">
<rect width="309" height="170" fill="white"/>
</clipPath>
</defs>
</svg>
