<svg width="86" height="113" viewBox="0 0 86 113" fill="none" xmlns="http://www.w3.org/2000/svg">
<path d="M85.9972 38.2922C85.9972 48.0286 81.7149 59.9347 74.2072 66.3333C66.6997 72.6932 56.3252 76.6287 44.9175 76.6287H7.34961C7.34961 66.931 11.9784 58.1081 19.486 51.7483C26.9936 45.3496 37.368 41.4141 48.8177 41.4141L85.9972 38.2922Z" fill="#F32C36"/>
<path d="M86 38.2921H45.1471C32.6823 38.2921 21.382 42.5763 13.2115 49.5396C5.0409 56.464 0 66.0731 0 76.6286V0H40.9006C65.7886 0 86 17.1368 86 38.2921Z" fill="#1279A9"/>
<path d="M85.9971 113L46.6972 110.039C24.9687 110.039 7.35547 95.0718 7.35547 76.6287H46.6972C68.3838 76.6287 85.9971 94.5626 85.9971 113Z" fill="#079221"/>
</svg>
