<svg width="248" height="76" viewBox="0 0 248 76" fill="none" xmlns="http://www.w3.org/2000/svg">
<g clip-path="url(#clip0_308_944)">
<path d="M54.099 25.7033C54.099 32.1921 51.4541 40.127 46.8171 44.3913C42.1802 48.6299 35.7725 51.2527 28.7267 51.2527H5.52344C5.52344 44.7897 8.38234 38.9096 13.0193 34.6711C17.6563 30.4067 24.0639 27.7839 31.1356 27.7839L54.099 25.7033Z" fill="#F32C36"/>
<path d="M54.0991 25.7033H28.8669C21.1682 25.7033 14.1887 28.5585 9.1423 33.1992C4.09586 37.814 0.982422 44.218 0.982422 51.2527V0.183426H26.2441C41.6158 0.183426 54.0991 11.6043 54.0991 25.7033Z" fill="#0096A6"/>
<path d="M54.0991 75.4925L29.8261 73.519C16.4058 73.519 5.52722 63.5442 5.52722 51.2527H29.8261C43.2205 51.2527 54.0991 63.2048 54.0991 75.4925Z" fill="#079221"/>
<path d="M98.0857 33.3468C97.547 32.8414 97.2815 32.218 97.2815 31.4654C97.2815 30.7129 97.5508 30.0821 98.0857 29.5619C98.6242 29.0418 99.2661 28.7799 100.015 28.7799C100.764 28.7799 101.406 29.0418 101.944 29.5619C102.483 30.0821 102.748 30.7166 102.748 31.4654C102.748 32.2143 102.479 32.8414 101.944 33.3468C101.406 33.8521 100.764 34.103 100.015 34.103C99.2661 34.103 98.6243 33.8521 98.0857 33.3468Z" fill="#00336D"/>
<path d="M82.3377 48.7996C84.3887 51.2417 86.4877 53.3259 88.6346 55.0486C90.7816 56.775 92.6887 58.0588 94.3487 58.9072H87.0742C84.8941 57.7046 82.9058 56.1332 81.1166 54.1965C79.3275 52.2598 77.8224 50.3305 76.6014 48.4123C75.3803 46.4941 74.0708 44.004 72.6727 40.9422V58.9109H68.3751V28.4921H82.7287C84.5178 28.4921 86.1704 28.9053 87.6829 29.7353C89.1954 30.5653 90.409 31.672 91.3202 33.0553C92.2313 34.4387 92.6887 35.9105 92.6887 37.4746C92.6887 39.0387 92.2903 40.3631 91.4935 41.6505C90.6967 42.9379 89.6306 43.9856 88.2952 44.8008L82.3377 48.8033V48.7996ZM73.5986 32.1995C74.9967 37.0504 77.1289 41.5435 79.9952 45.6751C83.4148 43.3658 85.333 42.0784 85.7573 41.8165C86.5393 41.2964 87.1664 40.6545 87.6386 39.8872C88.1108 39.1236 88.3469 38.3157 88.3469 37.471C88.3469 36.1024 87.7677 34.8813 86.6131 33.8079C85.4585 32.7344 84.1637 32.1958 82.7324 32.1958H73.6023L73.5986 32.1995Z" fill="#00336D"/>
<path d="M97.9122 58.8593H102.306V37.3271H97.9122V58.8593Z" fill="#00336D"/>
<path d="M113.73 55.5393C114.608 55.4729 115.405 55.1888 116.124 54.6834C116.84 54.1781 117.67 53.4698 118.614 52.5586C119.33 51.8762 119.924 51.345 120.396 50.9724C120.868 50.5998 121.348 50.3637 121.835 50.2641C123.203 49.9395 124.21 50.1424 124.863 50.8728C125.513 51.6069 125.896 52.5586 126.011 53.728C126.125 54.9011 126.036 56.609 125.741 58.8556H121.591C121.949 57.3579 122.111 56.2992 122.078 55.6831C122.045 55.0671 121.802 54.7056 121.344 54.6096C121.082 54.5764 120.813 54.6576 120.54 54.8531C120.263 55.0486 119.865 55.3917 119.345 55.8786C118.496 56.7271 117.652 57.4353 116.807 58.0034C115.958 58.5715 114.918 58.9884 113.682 59.2466C112.705 59.4421 111.583 59.3757 110.314 59.0511C109.045 58.7265 107.946 58.0662 107.02 57.0739C106.094 56.0815 105.644 54.724 105.677 52.9976C105.711 51.4999 106.124 50.2973 106.924 49.3861C107.721 48.475 108.721 47.7999 109.927 47.3609C111.13 46.922 112.546 46.5715 114.173 46.3096C114.239 46.3096 114.335 46.2948 114.464 46.2617C116.386 45.9702 117.851 45.6345 118.858 45.2619C119.865 44.8894 120.518 44.2438 120.809 43.3326C121.101 42.5506 120.835 41.7796 120.005 41.0123C119.175 40.2487 117.718 39.961 115.634 40.1565C114.136 40.2524 112.86 40.5955 111.801 41.182C110.742 41.7685 109.838 42.6945 109.09 43.9634L106.308 41.9604C107.153 40.5291 108.392 39.3412 110.019 38.3969C111.646 37.4525 113.516 36.9324 115.634 36.8328C117.88 36.7037 119.994 37.0431 121.982 37.8583C123.967 38.6736 125.04 40.1712 125.207 42.3514C125.336 43.8491 125.037 45.0369 124.303 45.9149C123.569 46.7928 122.643 47.42 121.521 47.7962C120.4 48.1688 118.909 48.5377 117.054 48.8955C114.937 49.2865 113.343 49.7181 112.269 50.1903C111.196 50.6625 110.576 51.4372 110.414 52.5107C110.318 53.2595 110.521 53.9752 111.023 54.6576C111.528 55.3401 112.432 55.6352 113.734 55.5356L113.73 55.5393Z" fill="#00336D"/>
<path d="M153.917 51.961C153.331 50.3969 152.722 49.1943 152.088 48.3496C151.453 47.5048 150.549 46.7707 149.376 46.151C148.203 45.5312 146.772 45.2398 145.079 45.273V41.2189C147.879 41.2853 150.214 41.894 152.084 43.0486C153.954 44.2032 155.386 45.6272 156.382 47.3204C157.374 49.0136 158.067 50.7068 158.458 52.3963C158.849 54.0895 159.093 56.2881 159.193 58.9884H155.19C155.157 58.2064 155.061 57.0997 154.899 55.6684C153.401 56.7751 151.748 57.6715 149.944 58.3539C148.137 59.0364 146.355 59.3794 144.599 59.3794C141.637 59.3794 138.896 58.6785 136.373 57.2804C133.85 55.8823 131.858 53.9862 130.393 51.5921C128.929 49.2017 128.195 46.5863 128.195 43.7569C128.195 40.9275 128.929 38.312 130.393 35.9216C131.858 33.5312 133.85 31.6351 136.373 30.2333C138.896 28.8352 141.637 28.1343 144.599 28.1343C147.104 28.1343 149.472 28.6471 151.704 29.6726C153.932 30.6981 155.828 32.1552 157.392 34.044L154.659 36.7775C153.453 35.2797 151.999 34.0993 150.287 33.2361C148.58 32.3729 146.683 31.9413 144.599 31.9413C142.515 31.9413 140.482 32.4688 138.69 33.5275C136.9 34.5862 135.484 36.0175 134.444 37.8251C133.403 39.6327 132.88 41.6099 132.88 43.7569C132.88 45.9038 133.4 47.8811 134.444 49.6886C135.484 51.4962 136.9 52.9275 138.69 53.9862C140.479 55.0449 142.449 55.5725 144.599 55.5725C147.595 55.5725 150.701 54.3699 153.925 51.961H153.917Z" fill="#00336D"/>
<path d="M175.837 45.0406V44.6016C175.837 42.4215 175.413 41.2816 174.568 41.1857C173.557 41.0898 172.565 41.8608 171.591 43.506C170.613 45.1513 169.75 47.1027 169.001 49.364C168.252 51.6253 167.356 54.8421 166.316 59.0068H161.97V37.4746H166.316V48.6557C167.127 45.9222 167.902 43.8233 168.636 42.3588C169.37 40.8942 170.303 39.6326 171.443 38.5739C172.583 37.5152 173.9 37.0357 175.398 37.1353C177.025 37.2312 178.238 38.0243 179.035 39.5035C179.832 40.9865 180.23 42.6207 180.23 44.4098V45.0443H175.837V45.0406Z" fill="#00336D"/>
<path d="M181.352 46.8002C181.676 44.0335 182.923 41.7243 185.089 39.8688C187.254 38.0132 189.818 37.0209 192.78 36.8918C196.329 36.7295 198.974 37.3787 200.715 38.8432C202.456 40.3077 203.116 42.0674 202.692 44.1147C202.401 45.2878 201.538 46.435 200.102 47.5565C198.671 48.6779 197.074 49.6481 195.318 50.4633C193.562 51.2786 191.12 52.2377 187.996 53.3444C189.46 54.8089 191.186 55.543 193.171 55.543C194.245 55.543 195.215 55.3475 196.074 54.9564C196.938 54.5654 197.646 54.119 198.199 53.6137C198.752 53.1083 199.354 52.3852 200.007 51.4409L202.936 53.3444C201.958 54.713 201.047 55.7606 200.202 56.4947C199.354 57.2288 198.299 57.8707 197.03 58.424C195.761 58.9773 194.344 59.254 192.784 59.254C190.832 59.254 189.006 58.8003 187.317 57.8854C185.624 56.9742 184.24 55.7532 183.167 54.2223C182.68 53.4735 182.289 52.7431 181.994 52.0237C185.672 50.8839 188.519 49.8989 190.537 49.0689C192.555 48.2389 194.322 47.2872 195.835 46.2137C197.347 45.1402 198.103 44.0335 198.103 42.8937C198.103 42.0821 197.605 41.4697 196.613 41.064C195.621 40.6582 194.473 40.4848 193.171 40.5512C191.382 40.6176 189.803 41.2337 188.435 42.4067C187.066 43.5798 186.236 45.0443 185.945 46.8002H181.356H181.352Z" fill="#00336D"/>
<path d="M203.906 46.8002C204.231 44.0335 205.477 41.7243 207.643 39.8688C209.808 38.0132 212.372 37.0209 215.334 36.8918C218.883 36.7295 221.528 37.3787 223.269 38.8432C225.01 40.3077 225.67 42.0674 225.246 44.1147C224.955 45.2878 224.092 46.435 222.657 47.5565C221.225 48.6779 219.628 49.6481 217.872 50.4633C216.116 51.2786 213.674 52.2377 210.55 53.3444C212.014 54.8089 213.741 55.543 215.725 55.543C216.799 55.543 217.769 55.3475 218.628 54.9564C219.492 54.5654 220.2 54.119 220.753 53.6137C221.306 53.1083 221.908 52.3852 222.561 51.4409L225.49 53.3444C224.512 54.713 223.601 55.7606 222.756 56.4947C221.908 57.2288 220.853 57.8707 219.584 58.424C218.315 58.9773 216.898 59.254 215.338 59.254C213.386 59.254 211.56 58.8003 209.871 57.8854C208.178 56.9742 206.794 55.7532 205.721 54.2223C205.234 53.4735 204.843 52.7431 204.548 52.0237C208.226 50.8839 211.073 49.8989 213.091 49.0689C215.109 48.2389 216.876 47.2872 218.389 46.2137C219.901 45.1402 220.657 44.0335 220.657 42.8937C220.657 42.0821 220.159 41.4697 219.167 41.064C218.175 40.6582 217.027 40.4848 215.725 40.5512C213.936 40.6176 212.357 41.2337 210.989 42.4067C209.62 43.5798 208.79 45.0443 208.499 46.8002H203.91H203.906Z" fill="#00336D"/>
<path d="M231.787 58.8593H227.441V37.3271H231.787V48.8992C232.665 45.937 233.528 43.6757 234.373 42.1116C235.217 40.5475 236.324 39.2306 237.693 38.1571C239.061 37.0836 240.637 36.6778 242.429 36.9361C245.845 37.4562 247.557 40.8906 247.557 47.2392V58.8593H243.163V47.5823C243.068 45.2398 242.854 43.5798 242.529 42.6022C242.204 41.6247 241.68 41.1045 240.965 41.0381C239.729 40.909 238.556 41.6653 237.449 43.3068C236.343 44.9521 235.384 46.9035 234.568 49.1648C233.753 51.4261 232.827 54.6576 231.787 58.8556V58.8593Z" fill="#00336D"/>
</g>
<defs>
<clipPath id="clip0_308_944">
<rect width="248" height="76" fill="white"/>
</clipPath>
</defs>
</svg>
