<svg width="23" height="33" viewBox="0 0 23 33" fill="none" xmlns="http://www.w3.org/2000/svg">
<path d="M3.03396 31.2625V26.1715H4.75413C5.15351 26.1715 5.47998 26.2436 5.73353 26.3878C5.98874 26.5303 6.17766 26.7234 6.30029 26.967C6.42293 27.2106 6.48424 27.4824 6.48424 27.7823C6.48424 28.0823 6.42293 28.3549 6.30029 28.6002C6.17932 28.8454 5.99205 29.041 5.7385 29.1868C5.48495 29.331 5.16014 29.4031 4.76407 29.4031H3.53112V28.8562H4.74419C5.01762 28.8562 5.2372 28.809 5.40292 28.7145C5.56864 28.6201 5.68879 28.4924 5.76336 28.3317C5.83959 28.1693 5.87771 27.9862 5.87771 27.7823C5.87771 27.5785 5.83959 27.3962 5.76336 27.2355C5.68879 27.0747 5.56781 26.9488 5.40044 26.8576C5.23306 26.7648 5.01099 26.7184 4.73424 26.7184H3.65044V31.2625H3.03396ZM8.95761 31.342C8.58971 31.342 8.27236 31.2608 8.00555 31.0984C7.7404 30.9343 7.53573 30.7056 7.39156 30.4123C7.24904 30.1173 7.17778 29.7743 7.17778 29.3832C7.17778 28.9921 7.24904 28.6474 7.39156 28.3491C7.53573 28.0491 7.73625 27.8155 7.99312 27.6481C8.25164 27.4791 8.55325 27.3946 8.89795 27.3946C9.09681 27.3946 9.29319 27.4277 9.48708 27.494C9.68097 27.5603 9.85747 27.668 10.0166 27.8171C10.1756 27.9646 10.3024 28.1602 10.3969 28.4038C10.4913 28.6474 10.5386 28.9473 10.5386 29.3036V29.5522H7.59539V29.0451H9.94198C9.94198 28.8297 9.8989 28.6375 9.81272 28.4684C9.7282 28.2994 9.60723 28.166 9.4498 28.0682C9.29402 27.9704 9.11007 27.9215 8.89795 27.9215C8.66428 27.9215 8.46211 27.9795 8.29142 28.0955C8.12238 28.2099 7.99229 28.359 7.90115 28.543C7.81 28.7269 7.76443 28.9241 7.76443 29.1346V29.4727C7.76443 29.761 7.81414 30.0055 7.91357 30.206C8.01466 30.4049 8.1547 30.5565 8.33367 30.6609C8.51265 30.7636 8.72063 30.815 8.95761 30.815C9.11173 30.815 9.25093 30.7935 9.37522 30.7504C9.50117 30.7056 9.60972 30.6393 9.70086 30.5515C9.79201 30.462 9.86244 30.351 9.91215 30.2184L10.4789 30.3775C10.4193 30.5697 10.319 30.7388 10.1781 30.8846C10.0373 31.0288 9.86327 31.1415 9.65612 31.2227C9.44897 31.3022 9.21613 31.342 8.95761 31.342ZM11.431 31.2625V27.4443H11.9977V28.021H12.0375C12.1071 27.8321 12.2331 27.6788 12.4153 27.5611C12.5976 27.4434 12.8031 27.3846 13.0318 27.3846C13.0749 27.3846 13.1288 27.3854 13.1934 27.3871C13.258 27.3888 13.3069 27.3912 13.3401 27.3946V27.9911C13.3202 27.9862 13.2746 27.9787 13.2033 27.9688C13.1337 27.9572 13.06 27.9514 12.9821 27.9514C12.7965 27.9514 12.6308 27.9903 12.485 28.0682C12.3408 28.1444 12.2264 28.2505 12.1419 28.3864C12.0591 28.5206 12.0176 28.6739 12.0176 28.8463V31.2625H11.431ZM15.975 27.4443V27.9414H13.9168V27.4443H15.975ZM14.5332 31.2625V26.9173C14.5332 26.6985 14.5846 26.5162 14.6874 26.3704C14.7901 26.2246 14.9235 26.1152 15.0876 26.0423C15.2516 25.9694 15.4248 25.9329 15.6071 25.9329C15.7513 25.9329 15.8689 25.9445 15.9601 25.9677C16.0512 25.9909 16.1192 26.0125 16.1639 26.0323L15.9949 26.5394C15.9651 26.5295 15.9236 26.5171 15.8706 26.5022C15.8192 26.4872 15.7513 26.4798 15.6668 26.4798C15.4729 26.4798 15.3328 26.5287 15.2467 26.6264C15.1622 26.7242 15.1199 26.8676 15.1199 27.0565V31.2625H14.5332ZM16.7972 31.2625V27.4443H17.3838V31.2625H16.7972ZM17.0955 26.8079C16.9811 26.8079 16.8825 26.769 16.7997 26.6911C16.7185 26.6132 16.6779 26.5196 16.6779 26.4102C16.6779 26.3008 16.7185 26.2072 16.7997 26.1293C16.8825 26.0514 16.9811 26.0125 17.0955 26.0125C17.2098 26.0125 17.3076 26.0514 17.3888 26.1293C17.4717 26.2072 17.5131 26.3008 17.5131 26.4102C17.5131 26.5196 17.4717 26.6132 17.3888 26.6911C17.3076 26.769 17.2098 26.8079 17.0955 26.8079ZM19.045 26.1715V31.2625H18.4583V26.1715H19.045Z" fill="#A0A3B1"/>
<path d="M18.8265 3.49614C16.7436 1.41088 13.9741 0.262451 11.0283 0.262451C8.08244 0.262451 5.31307 1.41088 3.23011 3.49614C1.14716 5.5814 0 8.35383 0 11.303C0 14.252 1.14716 17.0246 3.23011 19.1098C5.31307 21.1951 8.08244 22.3435 11.0283 22.3435C13.9741 22.3435 16.7436 21.1951 18.8265 19.1098C20.9095 17.0246 22.0567 14.252 22.0567 11.303C22.0567 8.35383 20.9095 5.5814 18.8265 3.49614ZM5.52881 19.3413C5.99006 16.6826 8.29144 14.7215 11.0283 14.7215C13.7654 14.7215 16.0666 16.6826 16.5279 19.3413C14.962 20.4183 13.0675 21.0497 11.0283 21.0497C8.98913 21.0497 7.09464 20.4183 5.52881 19.3413ZM7.52173 9.91718C7.52173 7.98135 9.0948 6.40671 11.0283 6.40671C12.9619 6.40671 14.5349 7.98152 14.5349 9.91718C14.5349 11.8528 12.9619 13.4277 11.0283 13.4277C9.0948 13.4277 7.52173 11.8528 7.52173 9.91718ZM17.6472 18.4439C17.2994 17.2062 16.6086 16.0832 15.6404 15.206C15.0463 14.6677 14.3702 14.243 13.6432 13.9437C14.9571 13.0857 15.8275 11.6013 15.8275 9.91718C15.8275 7.26807 13.6745 5.1129 11.0283 5.1129C8.38214 5.1129 6.22935 7.26807 6.22935 9.91718C6.22935 11.6013 7.09969 13.0857 8.41344 13.9437C7.68665 14.243 7.01033 14.6676 6.41631 15.2058C5.4482 16.083 4.75725 17.206 4.40941 18.4437C2.49356 16.6625 1.29238 14.1207 1.29238 11.303C1.29238 5.9286 5.65989 1.55626 11.0283 1.55626C16.3968 1.55626 20.7643 5.9286 20.7643 11.303C20.7643 14.1209 19.5631 16.6627 17.6472 18.4439Z" fill="#868889"/>
</svg>
