<svg width="37" height="36" viewBox="0 0 37 36" fill="none" xmlns="http://www.w3.org/2000/svg">
<path d="M0.493796 13.6849C0.493796 13.1698 0.871718 12.9068 1.62774 12.8939L9.35784 12.7837L12.9677 19.221C13.1433 19.6387 13.2324 19.9264 13.2324 20.0854C13.2324 20.2326 13.1397 20.3776 12.9576 20.5184C12.7752 20.659 12.5952 20.7293 12.4194 20.7293C12.3939 20.7293 12.2685 20.6686 12.0415 20.5453L11.0585 20.012L8.94192 23.2859H18.1462V32.4455H9.54663C7.95892 32.4455 6.69829 31.6677 5.76669 30.1099L0.493617 21.3365C0.191172 20.8215 0.0400391 20.209 0.0400391 19.4972C0.0400391 18.9453 0.165478 18.4672 0.417962 18.0625L2.19463 15.23L0.852626 14.4392C0.612454 14.3049 0.493617 14.0528 0.493617 13.6851L0.493796 13.6849ZM1.38204 14.0346L3.00757 14.9724L0.92846 18.467C0.739499 18.7743 0.645108 19.154 0.645108 19.6073C0.645108 20.062 0.78946 20.5215 1.07959 20.9868L5.72904 28.7854V28.4174C5.72904 27.4979 5.89248 26.7806 6.22027 26.2658L10.7942 19.221L12.1551 19.8648C12.2808 19.9882 12.3686 20.0488 12.4194 20.0488C12.4952 20.0248 12.5331 19.9882 12.5331 19.9384C12.5331 19.9264 12.4574 19.7794 12.3063 19.4971L9.05522 13.3903L1.38222 13.4639C1.25553 13.4639 1.19326 13.5377 1.19326 13.6846C1.19326 13.8316 1.25553 13.9486 1.38222 14.0342L1.38204 14.0346ZM28.6358 5.84949L29.8454 5.20574C30.0722 5.08334 30.248 5.02189 30.3747 5.02189C30.6014 5.02189 30.8284 5.11164 31.055 5.28907C31.2818 5.4665 31.3951 5.66546 31.3951 5.88612C31.3951 6.00956 31.313 6.2606 31.1496 6.64046L26.9728 13.1149L19.5072 12.4896C18.7509 12.416 18.373 12.2137 18.373 11.8826C18.373 11.6014 18.5056 11.3991 18.77 11.2755L19.8096 10.5953L17.9953 6.95331L13.2702 14.513L5.25637 9.80435L9.7545 2.61303C10.5607 1.32553 11.7071 0.713031 13.1945 0.773622L24.1562 1.21511C25.0124 1.25209 25.6549 1.39376 26.0842 1.6382C26.4744 1.87189 26.8211 2.28178 27.1236 2.8705L28.6355 5.85018L28.6358 5.84949ZM13.0434 13.6849L17.6927 6.30973L16.2564 3.51407C15.5625 2.16598 14.4418 1.49081 12.8921 1.49081C11.7448 1.49081 10.7875 2.10435 10.0193 3.33005L6.06931 9.62067L13.0434 13.6854V13.6849ZM9.86816 31.9491H17.4846V23.9665H8.46924L6.76824 26.6151C6.49042 27.0445 6.35266 27.6948 6.35266 28.5648C6.35266 30.8215 7.52426 31.9488 9.86799 31.9488L9.86816 31.9491ZM19.6583 11.9929L26.6324 12.5262C29.3918 8.29584 30.7715 6.10713 30.7715 5.95991C30.7715 5.76407 30.6637 5.66564 30.4501 5.66564C30.2988 5.66564 30.1857 5.67866 30.1102 5.70244L28.371 6.56685L26.5567 3.07223C26.1276 2.26303 25.3662 1.83473 24.2699 1.78473L15.1598 1.39845C15.827 1.74255 16.3441 2.28786 16.7097 3.0356L20.5842 10.816L19.2802 11.5698C19.1412 11.6434 19.0721 11.7116 19.0721 11.7721C19.0721 11.7971 19.2666 11.8707 19.6581 11.9931L19.6583 11.9929ZM24.572 22.9918H28.6356L23.7974 15.4509L31.7352 10.5955L36.271 17.6396C36.7249 18.3636 36.9517 19.0688 36.9517 19.7549C36.9517 20.1964 36.6682 20.9504 36.1011 22.0174L31.1492 31.3241C30.5822 32.4038 29.7064 32.9427 28.522 32.9427H25.1203V34.4509C25.1203 35.0028 24.8368 35.2787 24.2697 35.2787C24.0053 35.2787 23.7218 35.0524 23.4191 34.5981L19.11 28.2708L22.9088 21.9068C23.1734 21.4535 23.4946 21.2264 23.8727 21.2264C24.3388 21.2264 24.572 21.3983 24.572 21.7413V22.992V22.9918ZM24.5343 32.2613H28.6356C29.4795 32.2613 30.1532 31.7965 30.658 30.8636L35.0239 22.8075C34.1667 23.3356 33.3538 23.5986 32.5858 23.5986H23.9107V22.0168C23.9107 21.8825 23.8729 21.8144 23.7974 21.8144C23.7339 21.8759 23.6329 21.9797 23.4948 22.1271L19.8851 28.2333L24.1564 34.524C24.1941 34.5974 24.2444 34.634 24.3076 34.634C24.4589 34.634 24.5343 34.5422 24.5343 34.3582V32.2613ZM29.3351 22.9918H32.5858C33.3795 22.9918 34.1546 22.7222 34.9103 22.1825C35.8178 21.5453 36.2712 20.7479 36.2712 19.7915C36.2712 19.166 36.038 18.4854 35.5721 17.7498L31.5464 11.3859L24.6102 15.6162L29.3351 22.9915" fill="white"/>
</svg>
