<svg width="34" height="34" viewBox="0 0 34 34" fill="none" xmlns="http://www.w3.org/2000/svg">
<path fill-rule="evenodd" clip-rule="evenodd" d="M23.1009 16.3412L30.0406 12.106L33.1501 18.2284C33.9012 21.5735 29.7853 22.8011 26.4804 22.6014L23.1006 16.3412H23.1009Z" fill="#28B446"/>
<path fill-rule="evenodd" clip-rule="evenodd" d="M21.5233 20.7142L17.873 27.2967L21.5233 33.9715L21.6134 31.3014H24.9482C26.165 31.409 27.7422 30.5957 28.328 29.4142L32.6092 21.4045C31.1973 22.8314 29.3815 23.1997 27.2917 23.1997H21.6587L21.5236 20.714L21.5233 20.7142Z" fill="#28B446"/>
<path fill-rule="evenodd" clip-rule="evenodd" d="M13.3682 12.5983L6.375 8.45606L10.1059 2.70741C12.6044 0.41303 15.653 3.49313 17.0861 6.54126L13.3683 12.5985L13.3682 12.5983Z" fill="#28B446"/>
<path fill-rule="evenodd" clip-rule="evenodd" d="M17.8772 11.8844L25.283 11.9491L29.2243 5.44952L26.8953 6.66484L25.2766 3.68656C24.7779 2.54781 23.3163 1.53401 22.0206 1.58418L13.0869 1.64862C14.9937 2.21693 16.1901 3.65983 17.2044 5.52626L19.9387 10.5571L17.8767 11.8844H17.8772Z" fill="#28B446"/>
<path fill-rule="evenodd" clip-rule="evenodd" d="M1.02366 12.2553L3.19047 13.9479L1.15106 17.8539C0.131354 19.6551 1.88317 21.4097 2.99928 22.0201C4.09802 22.6214 5.80343 22.6929 7.39669 22.6712L10.2646 17.9841L12.4314 19.1558L8.67136 12.1902L1.02382 12.2553H1.02366Z" fill="#28B446"/>
<path fill-rule="evenodd" clip-rule="evenodd" d="M1.3418 21.3043L5.99401 29.8976C6.92878 31.0911 8.6919 31.3733 10.519 31.3299H15.4263V23.1926L6.12157 23.1275C4.67703 23.2144 2.78634 22.9105 1.3418 21.3046V21.3043Z" fill="#28B446"/>
</svg>
