<svg width="30" height="29" viewBox="0 0 30 29" fill="none" xmlns="http://www.w3.org/2000/svg">
<path d="M16.6393 20.8664V19.9203C18.7454 19.9203 20.2107 18.3788 20.2107 16.6434C20.2107 14.8364 18.6364 13.3664 16.7013 13.3664H14.1467C13.5519 13.3664 13.068 12.9134 13.068 12.3564C13.068 11.8188 13.5216 11.3464 14.1637 11.3464H16.6095C17.0387 11.3504 17.4634 11.5308 17.7753 11.8417C18.2337 12.2989 19.0028 12.3228 19.493 11.8951C19.9832 11.4675 20.0088 10.7503 19.5503 10.2931C18.7881 9.53311 17.7278 9.09174 16.6393 9.08003V8.13345C16.6393 7.50748 16.0952 7 15.424 7C14.7528 7 14.2086 7.50748 14.2086 8.13345V9.07958C12.1026 9.07958 10.6372 10.6211 10.6372 12.3565C10.6372 14.1634 12.2116 15.6334 14.1466 15.6334H16.7012C17.2961 15.6334 17.78 16.0865 17.78 16.6435C17.78 17.2042 17.2947 17.6535 16.7014 17.6535C16.6957 17.6535 16.6899 17.6534 16.6842 17.6534H14.0155C13.7127 17.6506 13.3906 17.5482 13.1082 17.3652C12.5569 17.0079 11.7996 17.1351 11.4166 17.6491C11.0335 18.1631 11.1698 18.8693 11.721 19.2267C12.5531 19.766 13.3276 19.9204 14.2085 19.9204V20.8666C14.2085 21.4925 14.7527 22 15.4239 22C16.0952 21.9998 16.6393 21.4924 16.6393 20.8664Z" fill="#079221"/>
<path d="M14.8926 0.75C22.9806 0.750214 29.5342 6.9329 29.5342 14.5C29.5342 22.0671 22.9806 28.2498 14.8926 28.25C6.80432 28.25 0.25 22.0672 0.25 14.5C0.250001 6.93277 6.80433 0.75 14.8926 0.75ZM14.8926 2.94629C8.14192 2.94629 2.62305 8.11496 2.62305 14.5C2.62305 20.885 8.14192 26.0537 14.8926 26.0537C21.643 26.0535 27.1611 20.8849 27.1611 14.5C27.1611 8.11509 21.643 2.9465 14.8926 2.94629Z" fill="#079221" stroke="#F2F3F7" stroke-width="0.5"/>
</svg>