<svg width="39" height="43" viewBox="0 0 39 43" fill="none" xmlns="http://www.w3.org/2000/svg">
<path d="M38.6978 17.1255L28.1358 5.47846C27.9424 5.26511 27.68 5.14532 27.4063 5.14532C27.1328 5.14532 26.8704 5.26527 26.6769 5.47846L21.5548 11.1265C21.5544 11.1269 21.554 11.1275 21.5536 11.128L19.1609 13.7661L17.4392 11.8678C17.4355 11.8635 17.4322 11.8588 17.4285 11.8547L12.3075 6.20705C12.1142 5.99371 11.8519 5.87392 11.5782 5.87392C11.3047 5.87392 11.0423 5.99371 10.8486 6.20705L0.302112 17.8353C-0.100704 18.2794 -0.100704 18.9993 0.302112 19.4435L5.42416 25.0916C5.61752 25.305 5.87993 25.4248 6.1536 25.4248C6.42728 25.4248 6.68955 25.3048 6.88305 25.0916L7.9057 23.9641L8.90854 25.0698L8.22036 25.8286C7.81768 26.2725 7.81754 26.9925 8.22022 27.4366L16.5315 36.6037C16.725 36.817 16.9874 36.937 17.2612 36.937C17.5349 36.937 17.7973 36.817 17.9908 36.6035L18.6786 35.8446L20.1994 37.5215C20.3927 37.7347 20.6551 37.8547 20.9288 37.8547C21.2023 37.8547 21.4646 37.7349 21.6582 37.5215L25.5266 33.2563C25.5295 33.2531 25.5326 33.2505 25.5354 33.2475C25.5383 33.2444 25.5405 33.2409 25.5435 33.2378L27.9903 30.5399C27.9912 30.5389 27.9923 30.5379 27.9931 30.5369C27.9941 30.5358 27.9949 30.5346 27.9959 30.5336L30.4538 27.8234C30.6471 27.6101 30.7558 27.3209 30.7558 27.0192C30.7558 26.7174 30.647 26.4283 30.4536 26.2149L28.9324 24.5382L30.5969 22.7013L32.1194 24.3794C32.3208 24.6014 32.5848 24.7124 32.8487 24.7124C33.1126 24.7124 33.3766 24.6014 33.5781 24.3793L38.6982 18.7334C39.1006 18.2894 39.1006 17.5695 38.6978 17.1255ZM2.49016 18.6395L11.5781 8.61952L15.2407 12.6587L14.5509 13.4193L7.1757 21.5513C7.17405 21.5531 7.17282 21.555 7.1713 21.5568L6.1536 22.679L2.49016 18.6395ZM17.2607 34.1909L10.4081 26.6327L11.0936 25.8766C11.0945 25.8757 11.0955 25.8748 11.0965 25.8739C11.0974 25.873 11.0981 25.8718 11.0991 25.8709L11.7831 25.1165L18.6364 32.6728L17.2607 34.1909ZM20.9284 35.1091L20.1362 34.2356L20.8243 33.4764C21.2268 33.0323 21.2267 32.3125 20.824 31.8685L12.5123 22.7042C12.3188 22.4908 12.0565 22.371 11.7829 22.371C11.5093 22.371 11.2469 22.491 11.0534 22.7042L10.3667 23.4614L9.36389 22.3557L15.2004 15.9197L16.6985 14.2678L17.702 15.3743L13.4691 20.0414C13.2756 20.2547 13.1669 20.5439 13.1669 20.8456C13.1669 21.1472 13.2757 21.4365 13.4691 21.6499L16.7888 25.3089C16.9823 25.5221 17.2446 25.6419 17.5181 25.6419H17.5184C17.792 25.6417 18.0542 25.522 18.2477 25.3086L22.4779 20.6423L26.743 25.3445C26.7517 25.3539 26.761 25.3623 26.7698 25.3714L28.2652 27.0196L27.2634 28.1241L24.6595 25.2522C24.257 24.8079 23.6038 24.8079 23.2009 25.2519C22.7981 25.696 22.7979 26.416 23.2007 26.8601L25.805 29.7323L24.8054 30.8347L22.2008 27.9631C21.7981 27.519 21.145 27.5191 20.7422 27.9632C20.3394 28.4074 20.3394 29.1275 20.7423 29.5716L23.3468 32.4429L20.9284 35.1091ZM29.1368 21.0941L27.4729 22.9303L27.1192 22.5403C27.111 22.5313 27.1022 22.5237 27.0939 22.5152L23.2067 18.2297C23.0133 18.0163 22.7509 17.8965 22.4772 17.8965C22.2037 17.8965 21.9411 18.0165 21.7478 18.2298L17.5176 22.8963L15.657 20.8455L19.8883 16.1804C19.8888 16.1797 19.8895 16.1793 19.8901 16.1787C19.8906 16.1781 19.8912 16.1775 19.8917 16.1769L22.2844 13.5389L23.2095 14.5586L29.1368 21.0941ZM32.8481 21.9671L24.9742 13.2875L23.7432 11.9303L27.4065 7.89093L36.5099 17.9294L32.8481 21.9671Z" fill="#EE1F8F"/>
</svg>